# xmcd
#
# Track frame offsets:
#	150
#	17652
#	40529
#	57214
#	76071
#	93985
#	111700
#	126576
#	142202
#	157228
#	175653
#
# Disc length: 2550 seconds
#
# Revision: 3
# Processed by: cddbd v1.4PL0 Copyright (c) Steve Scherf et al.
# Submitted via: CDmax 1.8
#
DISCID=9509f40b
DTITLE=Billy Ray Cyrus - Southern Rain
DYEAR=2000
DGENRE=Country
TTITLE0=You Won't Be Lonely Now
TTITLE1=Southern Rain
TTITLE2=All I'm Thinking About is You
TTITLE3=We the People
TTITLE4=I Will
TTITLE5=Love You Back
TTITLE6=Burn Down the Trailer Park
TTITLE7=Everywhere I Wanna Be
TTITLE8=Crazy 'Bout You Baby
TTITLE9=Without You
TTITLE10=Bonus Track: Hey Elvis
EXTD=
EXTT0=
EXTT1=
EXTT2=
EXTT3=
EXTT4=
EXTT5=
EXTT6=
EXTT7=
EXTT8=
EXTT9=
EXTT10=
PLAYORDER=
